<svg width="20" height="20" viewBox="0 0 20 20" fill="none" xmlns="http://www.w3.org/2000/svg">
<path d="M16.6667 3.33335H14.025L12.5 1.66669H7.5L5.975 3.33335H3.33333C2.8913 3.33335 2.46738 3.50895 2.15482 3.82151C1.84226 4.13407 1.66666 4.55799 1.66666 5.00002V15C1.66666 15.442 1.84226 15.866 2.15482 16.1785C2.46738 16.4911 2.8913 16.6667 3.33333 16.6667H16.6667C17.1087 16.6667 17.5326 16.4911 17.8452 16.1785C18.1577 15.866 18.3333 15.442 18.3333 15V5.00002C18.3333 4.55799 18.1577 4.13407 17.8452 3.82151C17.5326 3.50895 17.1087 3.33335 16.6667 3.33335ZM16.6667 15H3.33333V5.00002H6.70833L8.23333 3.33335H11.7667L13.2917 5.00002H16.6667V15ZM10 5.83335C8.89493 5.83335 7.83512 6.27234 7.05372 7.05374C6.27232 7.83514 5.83333 8.89495 5.83333 10C5.83333 11.1051 6.27232 12.1649 7.05372 12.9463C7.83512 13.7277 8.89493 14.1667 10 14.1667C11.1051 14.1667 12.1649 13.7277 12.9463 12.9463C13.7277 12.1649 14.1667 11.1051 14.1667 10C14.1667 8.89495 13.7277 7.83514 12.9463 7.05374C12.1649 6.27234 11.1051 5.83335 10 5.83335ZM10 12.5C9.33696 12.5 8.70107 12.2366 8.23223 11.7678C7.76339 11.2989 7.5 10.6631 7.5 10C7.5 9.33698 7.76339 8.70109 8.23223 8.23225C8.70107 7.76341 9.33696 7.50002 10 7.50002C10.663 7.50002 11.2989 7.76341 11.7678 8.23225C12.2366 8.70109 12.5 9.33698 12.5 10C12.5 10.6631 12.2366 11.2989 11.7678 11.7678C11.2989 12.2366 10.663 12.5 10 12.5Z" fill="#E8A87C"/>
</svg>
