<svg width="16" height="16" viewBox="0 0 16 16" fill="none" xmlns="http://www.w3.org/2000/svg">
<path d="M7.99994 6C8.3918 5.99998 8.77503 6.11508 9.10204 6.331C9.42905 6.54692 9.68542 6.85416 9.83931 7.21454C9.99321 7.57493 10.0378 7.97259 9.96768 8.35812C9.89751 8.74366 9.71563 9.10009 9.44463 9.38314C9.17363 9.66619 8.82545 9.8634 8.44334 9.95025C8.06123 10.0371 7.66202 10.0098 7.2953 9.87171C6.92857 9.73361 6.6105 9.49083 6.38057 9.17351C6.15065 8.85618 6.01901 8.4783 6.002 8.0868L6 8L6.002 7.9132C6.02437 7.3983 6.24464 6.91191 6.61687 6.55546C6.98911 6.19902 7.48457 6.00003 7.99994 6Z" fill="#484848"/>
</svg>
